<svg xmlns="http://www.w3.org/2000/svg" width="400" height="108" viewBox="0 0 687 186">
  <defs>
    <style>
      .cls-1 {
        fill-rule: evenodd;
      }
    </style>
  </defs>
  <path id="VTalk" class="cls-1" d="M0.5,5.741L68,183.241h33.25l67-177.5H132L84.75,142.491l-48-136.75H0.5Zm319.5,0H172.249v30.25h57v147.25H263.5V35.991H320V5.741Zm15.872,159.871a41.643,41.643,0,0,0,16.25,14.695,49.621,49.621,0,0,0,23.375,5.434,60.478,60.478,0,0,0,26-6,59.458,59.458,0,0,0,21.5-17l0.75,6.75a17.345,17.345,0,0,0,6.125,10.875q5.121,4.371,15.125,4.375a26.794,26.794,0,0,0,6.125-.25q3.621-.5,8.125-1.25v-27.25q-4.254-.492-6.125-2.711t-1.875-7.4v-41.16q0-25.875-15.625-39.554T392,51.491a98.246,98.246,0,0,0-28.625,4.125A95.394,95.394,0,0,0,337,68.491l10.5,21.75A111.072,111.072,0,0,1,368,79.491a57.289,57.289,0,0,1,20.75-3.75q14.5,0,21.75,6.629t7.25,18.656v7.215a57.61,57.61,0,0,0-14.75-4,115.22,115.22,0,0,0-16.75-1.25q-16.752,0-29.375,5.312T337.121,123A35.335,35.335,0,0,0,330,144.983,37.709,37.709,0,0,0,335.871,165.612Zm63.875-7.047A39.062,39.062,0,0,1,385,161.491a26.971,26.971,0,0,1-12.625-2.68,19.6,19.6,0,0,1-7.875-7.191,17.763,17.763,0,0,1-2.75-9.387q0-9.024,8.375-14.508t21.375-5.484a70.5,70.5,0,0,1,13.25,1.344,68.98,68.98,0,0,1,13,3.777V140.28a11.705,11.705,0,0,1-1.75,5.367,21.077,21.077,0,0,1-4.5,5.606A35.762,35.762,0,0,1,399.746,158.565Zm82.5-4.91q0,15.292,8.625,23.687t24.375,8.4a85.3,85.3,0,0,0,16.375-1.75,64.788,64.788,0,0,0,15.625-5l-4.5-25.75a30.657,30.657,0,0,1-7.375,2.75,36.419,36.419,0,0,1-8.625,1,10.552,10.552,0,0,1-8-3.133q-3-3.135-3-12.418V0.741h-33.5V153.655ZM686.99,183.241l-52.25-74.676,48.75-55.074h-35.5l-53,58.3V0.741H561.74v182.5h33.25v-38.7l18-17.364,38.25,56.067h35.75Z"/>
</svg>
