<svg width="28" height="24" viewBox="0 0 28 24" fill="none" xmlns="http://www.w3.org/2000/svg">
<path d="M9.54589 0.0329971C7.8533 0.148027 6.14429 0.597193 4.7201 1.29833C2.08537 2.59105 0.458513 4.54108 0.0750789 6.87455C-0.122116 8.0358 0.0696013 9.19706 0.644752 10.3583C1.03366 11.1361 1.37328 11.6072 2.04702 12.281C2.62765 12.8616 3.16994 13.2834 3.95324 13.749L4.52839 14.0886L3.24662 16.5206C2.54001 17.8572 1.97581 18.9582 1.98677 18.9746C1.99772 18.9856 3.16446 18.1968 4.57768 17.2218C5.98543 16.2413 7.24529 15.3758 7.37127 15.2937L7.60133 15.1403L8.27508 15.2553C10.0498 15.5566 11.5507 15.5401 13.2762 15.206C15.6863 14.7404 17.8883 13.5956 19.2741 12.1002C20.4957 10.7691 21.1037 9.32305 21.1037 7.72906C21.1037 5.12719 19.3837 2.76085 16.4258 1.30928C14.4155 0.323311 11.967 -0.131332 9.54589 0.0329971ZM7.22338 7.45518V8.57809H6.12785H5.03233V7.45518V6.33226H6.12785H7.22338V7.45518ZM11.715 7.45518V8.57809H10.6195H9.52398V7.45518V6.33226H10.6195H11.715V7.45518ZM16.2615 7.45518V8.57809H15.1385H14.0156V7.45518V6.33226H15.1385H16.2615V7.45518Z" fill="white"/>
<path d="M22.725 6.17885C22.725 6.1898 22.7634 6.37056 22.8072 6.57871C22.851 6.79234 22.9058 7.24698 22.9222 7.59207C23.0537 9.93102 21.9527 12.1823 19.8055 13.979C17.5651 15.8578 14.1635 17.0355 10.8934 17.0738L10.2087 17.0793L10.5099 17.3532C11.118 17.901 12.219 18.5692 13.1392 18.9472C14.7003 19.5935 16.1574 19.8729 18.0143 19.8839C19.1043 19.8893 19.4659 19.8565 20.4354 19.6648L20.8517 19.5826L23.5029 21.4121C24.9544 22.42 26.1595 23.2362 26.165 23.2307C26.1759 23.2197 25.6391 22.1735 24.9709 20.9027C24.3026 19.6319 23.7658 18.5911 23.7768 18.5802C23.7822 18.5747 24.0013 18.4487 24.2588 18.3063C26.0719 17.271 27.4029 15.6661 27.8631 13.9516C27.9836 13.497 28 13.3162 28 12.6041C28 11.892 27.9836 11.7112 27.8576 11.2511C27.4358 9.65714 26.3951 8.30416 24.7572 7.20316C24.1164 6.77043 22.725 6.06929 22.725 6.17885Z" fill="white"/>
</svg>
