<svg width="28" height="26" viewBox="0 0 28 26" fill="none" xmlns="http://www.w3.org/2000/svg">
<path d="M12.6653 0.0437164C10.4196 0.196337 8.15213 0.792282 6.26255 1.72254C2.76683 3.43769 0.608347 6.02497 0.0996135 9.12097C-0.162021 10.6617 0.0923459 12.2024 0.855446 13.7432C1.37145 14.7752 1.82204 15.4002 2.71596 16.2941C3.48632 17.0645 4.20582 17.6241 5.24509 18.2418L6.00819 18.6924L4.30756 21.9193C3.37004 23.6925 2.62148 25.1533 2.63601 25.1751C2.65055 25.1897 4.19855 24.1431 6.0736 22.8495C7.94137 21.5486 9.61293 20.4003 9.78008 20.2913L10.0853 20.0878L10.9792 20.2404C13.3339 20.6401 15.3253 20.6183 17.6146 20.175C20.8123 19.5573 23.7339 18.0383 25.5726 16.0543C27.1933 14.2882 28 12.3696 28 10.2547C28 6.8026 25.718 3.66299 21.7935 1.73707C19.1262 0.428902 15.8776 -0.174311 12.6653 0.0437164ZM9.58385 9.89134V11.3812H8.13033H6.67681V9.89134V8.40148H8.13033H9.58385V9.89134ZM15.5433 9.89134V11.3812H14.0898H12.6363V9.89134V8.40148H14.0898H15.5433V9.89134ZM21.5754 9.89134V11.3812H20.0856H18.5957V9.89134V8.40148H20.0856H21.5754V9.89134Z" fill="white"/>
</svg>
